<svg xmlns="http://www.w3.org/2000/svg" xmlns:xlink="http://www.w3.org/1999/xlink" contentStyleType="text/css" data-diagram-type="DESCRIPTION" height="456px" preserveAspectRatio="none" style="width:1900px;height:456px;background:#FFFFFF;" version="1.1" viewBox="0 0 1900 456" width="1900px" zoomAndPan="magnify"><?plantuml 1.2026.4beta2?><defs/><g><!--cluster Frontend (Client)--><g class="cluster" data-qualified-name="Frontend .Client." data-source-line="6" id="ent0003"><polygon fill="#FFFFFF" points="1428.35,21,1438.35,11,1754.35,11,1754.35,97.27,1744.35,107.27,1428.35,107.27,1428.35,21" style="stroke:#000000;stroke-width:1;"/><line style="stroke:#000000;stroke-width:1;" x1="1744.35" x2="1754.35" y1="21" y2="11"/><line style="stroke:#000000;stroke-width:1;" x1="1428.35" x2="1744.35" y1="21" y2="21"/><line style="stroke:#000000;stroke-width:1;" x1="1744.35" x2="1744.35" y1="21" y2="107.27"/><text fill="#000000" font-family="Verdana" font-size="14" font-weight="700" lengthAdjust="spacing" textLength="135.9258" x="1519.3871" y="36.9951">Frontend (Client)</text></g><!--cluster Backend (API Server)--><g class="cluster" data-qualified-name="Backend .API Server." data-source-line="11" id="ent0008"><polygon fill="#FFFFFF" points="301.35,166.27,311.35,156.27,641.35,156.27,641.35,242.53,631.35,252.53,301.35,252.53,301.35,166.27" style="stroke:#000000;stroke-width:1;"/><line style="stroke:#000000;stroke-width:1;" x1="631.35" x2="641.35" y1="166.27" y2="156.27"/><line style="stroke:#000000;stroke-width:1;" x1="301.35" x2="631.35" y1="166.27" y2="166.27"/><line style="stroke:#000000;stroke-width:1;" x1="631.35" x2="631.35" y1="166.27" y2="252.53"/><text fill="#000000" font-family="Verdana" font-size="14" font-weight="700" lengthAdjust="spacing" textLength="168.0684" x="383.3158" y="182.2651">Backend (API Server)</text></g><!--cluster Stocare Principal?--><g class="cluster" data-qualified-name="Stocare Principal." data-source-line="16" id="ent0013"><path d="M67.35,326.53 C67.35,316.53 232.85,316.53 232.85,316.53 C232.85,316.53 398.35,316.53 398.35,326.53 L398.35,412.8 C398.35,422.8 232.85,422.8 232.85,422.8 C232.85,422.8 67.35,422.8 67.35,412.8 L67.35,326.53" fill="#FFFFFF" style="stroke:#000000;stroke-width:1;"/><path d="M67.35,326.53 C67.35,336.53 232.85,336.53 232.85,336.53 C232.85,336.53 398.35,336.53 398.35,326.53" fill="none" style="stroke:#000000;stroke-width:1;"/><text fill="#000000" font-family="Verdana" font-size="14" font-weight="700" lengthAdjust="spacing" textLength="144.1563" x="160.7719" y="351.5251">Stocare Principal&#259;</text></g><!--cluster Broker & Cache--><g class="cluster" data-qualified-name="Broker . Cache" data-source-line="21" id="ent0018"><path d="M601.35,326.53 C601.35,316.53 766.85,316.53 766.85,316.53 C766.85,316.53 932.35,316.53 932.35,326.53 L932.35,412.8 C932.35,422.8 766.85,422.8 766.85,422.8 C766.85,422.8 601.35,422.8 601.35,412.8 L601.35,326.53" fill="#FFFFFF" style="stroke:#000000;stroke-width:1;"/><path d="M601.35,326.53 C601.35,336.53 766.85,336.53 766.85,336.53 C766.85,336.53 932.35,336.53 932.35,326.53" fill="none" style="stroke:#000000;stroke-width:1;"/><text fill="#000000" font-family="Verdana" font-size="14" font-weight="700" lengthAdjust="spacing" textLength="122.3428" x="705.6786" y="351.5251">Broker &amp; Cache</text></g><!--cluster Task Queue (Background)--><g class="cluster" data-qualified-name="Task Queue .Background." data-source-line="26" id="ent0023"><polygon fill="#FFFFFF" points="898.35,168.25,908.35,158.25,1187.35,158.25,1187.35,240.55,1177.35,250.55,898.35,250.55,898.35,168.25" style="stroke:#000000;stroke-width:1;"/><line style="stroke:#000000;stroke-width:1;" x1="1177.35" x2="1187.35" y1="168.25" y2="158.25"/><line style="stroke:#000000;stroke-width:1;" x1="898.35" x2="1177.35" y1="168.25" y2="168.25"/><line style="stroke:#000000;stroke-width:1;" x1="1177.35" x2="1177.35" y1="168.25" y2="250.55"/><text fill="#000000" font-family="Verdana" font-size="14" font-weight="700" lengthAdjust="spacing" textLength="204.2373" x="936.7313" y="184.2451">Task Queue (Background)</text></g><!--cluster Internet--><g class="cluster" data-qualified-name="Internet" data-source-line="31" id="ent0026"><path d="M1221.2489,343.7162 C1226.8868,332.2625 1237.2694,330.2943 1244.3209,342.3276 C1251.1396,330.895 1261.4369,331.2245 1269.308,341.0931 C1275.125,329.4298 1283.7954,331.0866 1290.6452,340.0234 C1297.9869,329.9925 1307.7021,327.3648 1315.3329,339.7045 C1322.9101,326.9958 1333.6776,326.9129 1342.3617,338.4716 C1348.528,329.8929 1356.6052,327.2165 1362.8972,338.3406 C1369.9073,325.475 1379.198,327.0986 1387.349,337.1217 C1397.8035,325.2015 1406.9367,327.0748 1415.0529,339.755 C1422.1941,329.8798 1431.1456,328.1968 1438.7324,339.2508 C1446.6797,328.5708 1457.0895,328.828 1463.4105,341.0067 C1470.9609,328.8498 1480.7071,329.1956 1486.7538,342.3913 C1495.2538,330.1412 1503.16,330.4828 1511.3911,342.6625 C1517.4602,330.9084 1527.0387,328.5551 1535.148,340.6284 C1542.247,330.0848 1550.6165,330.0599 1556.511,341.784 C1578.1841,348.4698 1579.4613,362.4104 1565.8119,378.1341 C1579.8139,393.4841 1578.6912,406.0217 1557.7073,413.3113 C1552.0318,427.7611 1544.3582,430.0863 1533.2384,418.4103 C1524.6456,430.1849 1516.4539,429.6659 1507.8605,418.4111 C1501.8128,431.0116 1491.4423,431.807 1483.726,420.0654 C1477.7005,434.1446 1469.6075,434.9365 1459.8397,423.5798 C1453.2485,434.9488 1444.9898,433.9142 1438.8591,423.1435 C1432.2869,434.3167 1420.0966,438.6161 1412.273,424.4569 C1408.6788,436.0085 1398.1847,437.9008 1390.6995,428.4545 C1381.1029,441.3332 1371.4223,439.7589 1363.7301,426.4902 C1352.935,436.0569 1345.2223,436.0582 1338.9079,421.8183 C1332.6033,432.0305 1322.7796,435.4717 1315.1926,423.1692 C1308.8005,433.1401 1299.127,432.4782 1293.902,421.9567 C1284.7115,433.756 1275.628,433.8114 1269.1524,419.3938 C1261.0925,430.4855 1252.108,429.0054 1244.7451,418.6024 C1235.3411,429.7963 1227.8175,426.9518 1221.6942,415.2933 C1202.0642,408.7874 1198.9353,390.084 1215.1631,377.3981 C1203.6414,363.2752 1201.6824,352.2219 1221.2489,343.7162" fill="#FFFFFF" style="stroke:#000000;stroke-width:1;"/><text fill="#000000" font-family="Verdana" font-size="14" font-weight="700" lengthAdjust="spacing" textLength="64.4219" x="1354.6391" y="359.5151">Internet</text></g><!--entity react--><g class="entity" data-qualified-name="Frontend .Client..react" data-source-line="7" id="ent0004"><rect fill="#FFFFFF" height="36.2969" rx="2.5" ry="2.5" style="stroke:#000000;stroke-width:1;" width="91.4629" x="1444.62" y="52.99"/><text fill="#000000" font-family="Verdana" font-size="14" lengthAdjust="spacing" textLength="71.4629" x="1454.62" y="75.9851">React SPA</text></g><g class="entity" data-qualified-name="Frontend .Client..GMN5" data-source-line="8" id="ent0006"><path d="M1570.66,51 L1570.66,67.14 L1536.47,71.14 L1570.66,75.14 L1570.66,91.2656 A0,0 0 0 0 1570.66,91.2656 L1738.0433,91.2656 A0,0 0 0 0 1738.0433,91.2656 L1738.0433,61 L1728.0433,51 L1570.66,51 A0,0 0 0 0 1570.66,51" fill="#FFFFFF" style="stroke:#000000;stroke-width:1;"/><path d="M1728.0433,51 L1728.0433,61 L1738.0433,61 L1728.0433,51" fill="#FFFFFF" style="stroke:#000000;stroke-width:1;"/><text fill="#000000" font-family="Verdana" font-size="13" lengthAdjust="spacing" textLength="146.3833" x="1576.66" y="68.0669">Dashboard (Paginare),</text><text fill="#000000" font-family="Verdana" font-size="13" lengthAdjust="spacing" textLength="78.5903" x="1576.66" y="83.1997">Workspaces</text></g><!--entity api--><g class="entity" data-qualified-name="Backend .API Server..api" data-source-line="12" id="ent0009"><rect fill="#FFFFFF" height="36.2969" rx="2.5" ry="2.5" style="stroke:#000000;stroke-width:1;" width="71.5635" x="317.57" y="198.25"/><text fill="#000000" font-family="Verdana" font-size="14" lengthAdjust="spacing" textLength="51.5635" x="327.57" y="221.2451">FastAPI</text></g><g class="entity" data-qualified-name="Backend .API Server..GMN10" data-source-line="13" id="ent0011"><path d="M423.74,196.27 L423.74,212.4 L389.42,216.4 L423.74,220.4 L423.74,236.5356 A0,0 0 0 0 423.74,236.5356 L624.95,236.5356 A0,0 0 0 0 624.95,236.5356 L624.95,206.27 L614.95,196.27 L423.74,196.27 A0,0 0 0 0 423.74,196.27" fill="#FFFFFF" style="stroke:#000000;stroke-width:1;"/><path d="M614.95,196.27 L614.95,206.27 L624.95,206.27 L614.95,196.27" fill="#FFFFFF" style="stroke:#000000;stroke-width:1;"/><text fill="#000000" font-family="Verdana" font-size="13" lengthAdjust="spacing" textLength="180.21" x="429.74" y="213.3369">Autentificare (JWT/OAuth2),</text><text fill="#000000" font-family="Verdana" font-size="13" lengthAdjust="spacing" textLength="107.1484" x="429.74" y="228.4697">CRUD Monitoare</text></g><!--entity db--><g class="entity" data-qualified-name="Stocare Principal..db" data-source-line="17" id="ent0014"><rect fill="#FFFFFF" height="36.2969" rx="2.5" ry="2.5" style="stroke:#000000;stroke-width:1;" width="100.7529" x="82.97" y="368.52"/><text fill="#000000" font-family="Verdana" font-size="14" lengthAdjust="spacing" textLength="80.7529" x="92.97" y="391.5151">PostgreSQL</text></g><g class="entity" data-qualified-name="Stocare Principal..GMN15" data-source-line="18" id="ent0016"><path d="M218.46,366.53 L218.46,382.67 L183.9,386.67 L218.46,390.67 L218.46,406.7956 A0,0 0 0 0 218.46,406.7956 L382.2378,406.7956 A0,0 0 0 0 382.2378,406.7956 L382.2378,376.53 L372.2378,366.53 L218.46,366.53 A0,0 0 0 0 218.46,366.53" fill="#FFFFFF" style="stroke:#000000;stroke-width:1;"/><path d="M372.2378,366.53 L372.2378,376.53 L382.2378,376.53 L372.2378,366.53" fill="#FFFFFF" style="stroke:#000000;stroke-width:1;"/><text fill="#000000" font-family="Verdana" font-size="13" lengthAdjust="spacing" textLength="127.3911" x="224.46" y="383.5969">Users, Workspaces,</text><text fill="#000000" font-family="Verdana" font-size="13" lengthAdjust="spacing" textLength="142.7778" x="224.46" y="398.7297">Monitors, Ping History</text></g><!--entity redis--><g class="entity" data-qualified-name="Broker . Cache.redis" data-source-line="22" id="ent0019"><rect fill="#FFFFFF" height="36.2969" rx="2.5" ry="2.5" style="stroke:#000000;stroke-width:1;" width="58.4111" x="617.14" y="368.52"/><text fill="#000000" font-family="Verdana" font-size="14" lengthAdjust="spacing" textLength="38.4111" x="627.14" y="391.5151">Redis</text></g><g class="entity" data-qualified-name="Broker . Cache.GMN20" data-source-line="23" id="ent0021"><path d="M710.28,366.53 L710.28,382.67 L676.03,386.67 L710.28,390.67 L710.28,406.7956 A0,0 0 0 0 710.28,406.7956 L916.4094,406.7956 A0,0 0 0 0 916.4094,406.7956 L916.4094,376.53 L906.4094,366.53 L710.28,366.53 A0,0 0 0 0 710.28,366.53" fill="#FFFFFF" style="stroke:#000000;stroke-width:1;"/><path d="M906.4094,366.53 L906.4094,376.53 L916.4094,376.53 L906.4094,366.53" fill="#FFFFFF" style="stroke:#000000;stroke-width:1;"/><text fill="#000000" font-family="Verdana" font-size="13" lengthAdjust="spacing" textLength="141.5464" x="716.28" y="383.5969">Rate Limiting, Sesiuni</text><text fill="#000000" font-family="Verdana" font-size="13" lengthAdjust="spacing" textLength="185.1294" x="716.28" y="398.7297">+ Coad&#259; de mesaje (Broker)</text></g><!--entity beat--><g class="entity" data-qualified-name="Task Queue .Background..beat" data-source-line="27" id="ent0024"><rect fill="#FFFFFF" height="36.2969" rx="2.5" ry="2.5" style="stroke:#000000;stroke-width:1;" width="101.6689" x="914.51" y="198.25"/><text fill="#000000" font-family="Verdana" font-size="14" lengthAdjust="spacing" textLength="81.6689" x="924.51" y="221.2451">Celery Beat</text></g><!--entity worker--><g class="entity" data-qualified-name="Task Queue .Background..worker" data-source-line="28" id="ent0025"><rect fill="#FFFFFF" height="36.2969" rx="2.5" ry="2.5" style="stroke:#000000;stroke-width:1;" width="120.0234" x="1051.34" y="198.25"/><text fill="#000000" font-family="Verdana" font-size="14" lengthAdjust="spacing" textLength="100.0234" x="1061.34" y="221.2451">Celery Worker</text></g><!--entity target--><g class="entity" data-qualified-name="Internet.target" data-source-line="32" id="ent0027"><rect fill="#FFFFFF" height="36.2969" rx="2.5" ry="2.5" style="stroke:#000000;stroke-width:1;" width="149.0693" x="1226.81" y="368.52"/><text fill="#000000" font-family="Verdana" font-size="14" lengthAdjust="spacing" textLength="129.0693" x="1236.81" y="391.5151">Website-uri Clien&#539;i</text></g><g class="entity" data-qualified-name="Internet.GMN28" data-source-line="33" id="ent0029"><path d="M1411.33,374.1 L1411.33,382.67 L1376.09,386.67 L1411.33,390.67 L1411.33,399.2328 A0,0 0 0 0 1411.33,399.2328 L1547.3622,399.2328 A0,0 0 0 0 1547.3622,399.2328 L1547.3622,384.1 L1537.3622,374.1 L1411.33,374.1 A0,0 0 0 0 1411.33,374.1" fill="#FFFFFF" style="stroke:#000000;stroke-width:1;"/><path d="M1537.3622,374.1 L1537.3622,384.1 L1547.3622,384.1 L1537.3622,374.1" fill="#FFFFFF" style="stroke:#000000;stroke-width:1;"/><text fill="#000000" font-family="Verdana" font-size="13" lengthAdjust="spacing" textLength="115.0322" x="1417.33" y="391.1669">Doar HTTP/HTTPS</text></g><!--entity user--><g class="entity" data-qualified-name="user" data-source-line="4" id="ent0002"><ellipse cx="1687.3518" cy="357.02" fill="#FFFFFF" rx="8" ry="8" style="stroke:#000000;stroke-width:1;"/><path d="M1687.3518,365.02 L1687.3518,392.02 M1674.3518,373.02 L1700.3518,373.02 M1687.3518,392.02 L1674.3518,407.02 M1687.3518,392.02 L1700.3518,407.02" fill="none" style="stroke:#000000;stroke-width:1;"/><text fill="#000000" font-family="Verdana" font-size="14" lengthAdjust="spacing" textLength="63.1436" x="1655.78" y="422.0151">Utilizator</text></g><!--link user to react--><g class="link" data-entity-1="ent0002" data-entity-2="ent0004" data-link-type="dependency" data-source-line="37" id="lnk31"><path d="M1719.31,350.23 C1736.38,326.82 1751.43,295.59 1738.35,268.53 C1726.12,243.26 1580.0408,136.5435 1519.8008,93.2135" fill="none" id="user-to-react" style="stroke:#000000;stroke-width:1;"/><polygon fill="#000000" points="1514.93,89.71,1519.9006,98.2126,1518.989,92.6296,1524.572,91.7181,1514.93,89.71" style="stroke:#000000;stroke-width:1;"/><text fill="#000000" font-family="Verdana" font-size="13" lengthAdjust="spacing" textLength="151.4614" x="1733.35" y="220.9669">Gestioneaz&#259; monitoare</text></g><!--link react to api--><g class="link" data-entity-1="ent0004" data-entity-2="ent0009" data-link-type="dependency" data-source-line="38" id="lnk32"><path d="M1444.28,73.19 C1249.49,77.92 499.12,99.22 406.35,148.27 C385.74,159.16 373.3427,176.6824 364.6227,192.6724" fill="none" id="react-to-api" style="stroke:#000000;stroke-width:1;"/><polygon fill="#000000" points="361.75,197.94,369.5707,191.9537,364.1439,193.5503,362.5472,188.1235,361.75,197.94" style="stroke:#000000;stroke-width:1;"/><text fill="#000000" font-family="Verdana" font-size="13" lengthAdjust="spacing" textLength="132.9707" x="518.35" y="136.3369">Cereri REST (HTTPS)</text></g><!--link api to redis--><g class="link" data-entity-1="ent0009" data-entity-2="ent0019" data-link-type="dependency" data-source-line="39" id="lnk33"><path d="M371.94,234.87 C381.67,243.39 394.08,253.32 406.35,260.53 C414.6,265.39 418.2,263.5 426.35,268.53 C444.56,279.79 444.44,288.8 462.35,300.53 C513.28,333.9 573.7833,358.9398 611.3133,373.0398" fill="none" id="api-to-redis" style="stroke:#000000;stroke-width:1;"/><polygon fill="#000000" points="616.93,375.15,609.9118,368.2403,612.2494,373.3915,607.0982,375.7292,616.93,375.15" style="stroke:#000000;stroke-width:1;"/><text fill="#000000" font-family="Verdana" font-size="13" lengthAdjust="spacing" textLength="228.5854" x="463.35" y="289.0969">Verific&#259; limite trafic (Rate Limiting)</text></g><!--link api to redis--><g class="link" data-entity-1="ent0009" data-entity-2="ent0019" data-link-type="dependency" data-source-line="49" id="lnk39"><path d="M317.17,227.15 C271.86,241.01 203.67,268.32 234.35,300.53 C246.93,313.75 380.38,305.36 398.35,308.53 C479.38,322.87 565.3169,353.7981 611.2069,371.6181" fill="none" id="api-to-redis-1" style="stroke:#000000;stroke-width:1;"/><polygon fill="#000000" points="616.8,373.79,609.8583,366.8034,612.1391,371.9801,606.9624,374.2609,616.8,373.79" style="stroke:#000000;stroke-width:1;"/><text fill="#000000" font-family="Verdana" font-size="13" lengthAdjust="spacing" textLength="182.438" x="235.35" y="289.0969">Trimite eveniment de alert&#259;</text></g><!--link api to db--><g class="link" data-entity-1="ent0009" data-entity-2="ent0014" data-link-type="dependency" data-source-line="40" id="lnk34"><path d="M317.3,217.7 C242.73,219.17 75.56,227.1 40.35,268.53 C11,303.06 59.7844,341.7722 97.0544,364.9422" fill="none" id="api-to-db" style="stroke:#000000;stroke-width:1;"/><polygon fill="#000000" points="102.15,368.11,96.6185,359.9612,97.9037,365.4702,92.3948,366.7553,102.15,368.11" style="stroke:#000000;stroke-width:1;"/><text fill="#000000" font-family="Verdana" font-size="13" lengthAdjust="spacing" textLength="156.8062" x="41.35" y="289.0969">Cite&#537;te/Scrie configur&#259;ri</text></g><!--link beat to redis--><g class="link" data-entity-1="ent0024" data-entity-2="ent0019" data-link-type="dependency" data-source-line="43" id="lnk35"><path d="M914.29,220.33 C865.05,225.01 789.75,237.12 732.35,268.53 C710.29,280.6 707.79,288.7 692.35,308.53 C677.5,327.6 666.5695,346.5531 658.0395,362.7231" fill="none" id="beat-to-redis" style="stroke:#000000;stroke-width:1;"/><polygon fill="#000000" points="655.24,368.03,662.9771,361.936,657.5729,363.6076,655.9013,358.2034,655.24,368.03" style="stroke:#000000;stroke-width:1;"/><text fill="#000000" font-family="Verdana" font-size="13" lengthAdjust="spacing" textLength="138.5693" x="733.35" y="281.5969">Pune task-uri de ping</text><text fill="#000000" font-family="Verdana" font-size="13" lengthAdjust="spacing" textLength="102.2861" x="751.4916" y="296.7297">(la 1 sau 5 min)</text></g><!--link redis to worker--><g class="link" data-entity-1="ent0019" data-entity-2="ent0025" data-link-type="dependency" data-source-line="44" id="lnk36"><path d="M651.22,368.26 C657.43,349.78 670.11,321.47 692.35,308.53 C728.85,287.29 1036.94,323.56 1072.35,300.53 C1094.8,285.93 1103.369,260.5665 1107.439,240.8165" fill="none" id="redis-to-worker" style="stroke:#000000;stroke-width:1;"/><polygon fill="#000000" points="1108.65,234.94,1102.9158,242.9474,1107.6408,239.8371,1110.7512,244.5621,1108.65,234.94" style="stroke:#000000;stroke-width:1;"/><text fill="#000000" font-family="Verdana" font-size="13" lengthAdjust="spacing" textLength="148.4526" x="1097.35" y="289.0969">Preia task-ul din coad&#259;</text></g><!--link worker to target--><g class="link" data-entity-1="ent0025" data-entity-2="ent0027" data-link-type="dependency" data-source-line="45" id="lnk37"><path d="M1171.83,224.92 C1202.54,231.65 1238.34,244.4 1262.35,268.53 C1289.56,295.88 1297.1942,336.7087 1299.6842,362.0887" fill="none" id="worker-to-target" style="stroke:#000000;stroke-width:1;"/><polygon fill="#000000" points="1300.27,368.06,1303.3721,358.7124,1299.7818,363.0839,1295.4104,359.4936,1300.27,368.06" style="stroke:#000000;stroke-width:1;"/><text fill="#000000" font-family="Verdana" font-size="13" lengthAdjust="spacing" textLength="189.7251" x="1283.35" y="289.0969">Execut&#259; Ping (HTTP Request)</text></g><!--link worker to db--><g class="link" data-entity-1="ent0025" data-entity-2="ent0014" data-link-type="dependency" data-source-line="46" id="lnk38"><path d="M1086.26,235.02 C1071.55,244.36 1052.21,255.02 1033.35,260.53 C1006.63,268.35 933.71,257.07 908.35,268.53 C890.02,276.82 894.88,292.73 876.35,300.53 C841.79,315.09 235.44,292.9 201.35,308.53 C174.41,320.89 156.8948,344.4978 145.7348,363.1978" fill="none" id="worker-to-db" style="stroke:#000000;stroke-width:1;"/><polygon fill="#000000" points="142.66,368.35,150.707,362.6715,145.2223,364.0565,143.8374,358.5718,142.66,368.35" style="stroke:#000000;stroke-width:1;"/><text fill="#000000" font-family="Verdana" font-size="13" lengthAdjust="spacing" textLength="137.8394" x="917.8654" y="281.5969">Salveaz&#259; status code</text><text fill="#000000" font-family="Verdana" font-size="13" lengthAdjust="spacing" textLength="154.8701" x="909.35" y="296.7297">&#537;i latency (Ping History)</text></g><!--link worker to user--><g class="link" data-entity-1="ent0025" data-entity-2="ent0002" data-link-type="dependency" data-source-line="50" id="lnk40"><path d="M1171.69,217.54 C1246.65,219.54 1377.37,229.08 1481.35,268.53 C1505.32,277.63 1505.83,290.32 1529.35,300.53 C1543.59,306.72 1549.01,302.58 1563.35,308.53 C1596.71,322.4 1626.4497,341.2678 1650.6097,358.3378" fill="none" id="worker-to-user" style="stroke:#000000;stroke-width:1;"/><polygon fill="#000000" points="1655.51,361.8,1650.4677,353.3398,1651.4264,358.9148,1645.8514,359.8735,1655.51,361.8" style="stroke:#000000;stroke-width:1;"/><text fill="#000000" font-family="Verdana" font-size="13" lengthAdjust="spacing" textLength="203.8867" x="1530.35" y="289.0969">Trimite alert&#259; (Email/Webhook)</text></g><?plantuml-src RLHDJzj04BtxLqnpQ6EL2BLIBnmgXG25YgecJiebbuazEDFOk-b-K4BL4xy2zUzmu6TrTXq8IRXOizutysRUFFkDcr53iAYHLMBdh1Pei852DmkjIBdSBMi2GuL3LTMK95WuRQ0pTbppBKhS0RJWBPaaKReaw9mOhHof4hg3cgL4se4_2QnBGcT8KWNoh1zpJJW9G6adJ5pDt04SePrDDHefac752WsbUnDrgStSBh0Wc_nzeZl4OXxP-jaPv6IkoUmodg1rSX_vSC5RR7ql_Jg-ua9ueFlrShJ_NTxDFWREmN1y1D-qOYVzKE0jqU4KhN3dJiUKpB0gU87rmzqETQQjgmpb5-UHlPnkaOz5Ehi7wz64iwKBhpDM5PoobTDoa_lGw3aPU0i3B6RqYiObsvM-4csH3b7YSsxOIVqzaSsoLpnHxs6WiNou0r6s8Oi_HOwMA5qhFa8xXmjFFboA-fNHNfMxeW-e9hE4Gq8N6vbAy2eYp4wjaNx7C70LjVObTCx4IqQHswb-ILFBZdhUC4IZFVxZMCAXgMZ7KB8yE1sDiltmo0F1E-ZrUd1I-njVWt_siwyzXviaU5g2pwr1uG2-a7Kix7Wh0ZNFZcYl0r2S9R016PAUXiVv2BgHBKt2JLjATY6O7u8GkqcTEYo1m1cKCtGt5hFEAwUXi00VxntjvuLX4YtK5LVUFDmPtfecRA-raCmKB3rUE6ueZNE5DMmqatab3SXIevQIkn3kYUhM21_0eeTFqB1AanOVCjijXLH3ZAjSeMKbNGN_92j40BVx4F3n3HNUoSpHr54Q6D8lBxAcBnFYi3dMrwtIrg7pLWgND56FzmorQAIAfVmQNdmSwPC48nCLbQdxOYvHizktIrMqis_lOGK6kYOb0eclP7mCUPipH2-iuIi4T8yRv7fVh3ZJUfx-1m00?></g></svg>